<?xml version="1.0" encoding="UTF-8"?>
<svg xmlns="http://www.w3.org/2000/svg" viewBox="0 0 24 24" fill="none" stroke="currentColor" stroke-width="2" stroke-linecap="round" stroke-linejoin="round">
  <path d="M2 7c.6.4 1.2.7 2 .7C5.6 7.7 7 6.6 7 5c0-.6-.4-1.2-.8-1.5" />
  <path d="M22 7c-.6.4-1.2.7-2 .7-1.6 0-3-1.1-3-2.7 0-.6.4-1.2.8-1.5" />
  <path d="M5 8v12a2 2 0 0 0 2 2h10a2 2 0 0 0 2-2V8" />
  <path d="M6 13h12" />
  <path d="M6 18h12" />
  <path d="m15 22-3-2-3 2" />
  <path d="M10 7v5.5" />
  <path d="M14 7v5.5" />
</svg>