<?xml version="1.0" encoding="UTF-8"?>
<svg xmlns="http://www.w3.org/2000/svg" viewBox="0 0 24 24" fill="none" stroke="currentColor" stroke-width="2" stroke-linecap="round" stroke-linejoin="round">
  <path d="M2 5c5.5 0 7 2.5 7 2.5s1.5-2.5 7-2.5" />
  <path d="M9 10c-.86-3.97-6-5-6-5s5.35 2.9 6 5z" />
  <path d="M17.5 4.5 16 5v3h-3v3c0 1.03 1.14 2 3 2s3-.97 3-2v-3h-3v-1l2-1.5" />
  <path d="M20.24 12.71a7.46 7.46 0 0 1-4.24 1.3 7.45 7.45 0 0 1-4.24-1.3M9 12v6m0 0a5 5 0 0 1-5 5m5-5a5 5 0 0 0 10 0m-5-6v6" />
</svg>