<?xml version="1.0" encoding="UTF-8"?>
<svg xmlns="http://www.w3.org/2000/svg" viewBox="0 0 24 24" fill="none" stroke="currentColor" stroke-width="2" stroke-linecap="round" stroke-linejoin="round">
  <path d="M12 6v4l-2 2" />
  <path d="M12 6h4.5c1 0 3.5 1 3.5 5s-2.5 5-3.5 5H12" />
  <path d="M12 16v-3" />
  <path d="M4 12h8" />
  <path d="M17 6c-2 0-4 1-4 3" />
  <path d="M13.5 21c2 0 4.5-1 4.5-5a8 8 0 0 0-4.5-2" />
  <path d="M9 5c-1 2-4 3-4 7s3 3 4 5" />
  <path d="M12 6c0-2 1-3 2-3" />
</svg>