<?xml version="1.0" encoding="UTF-8"?>
<svg xmlns="http://www.w3.org/2000/svg" viewBox="0 0 24 24" fill="none" stroke="currentColor" stroke-width="2" stroke-linecap="round" stroke-linejoin="round">
  <path d="M11.5 3C8 3 5.5 5.5 5.5 9c0 2.5 2 3.5 2 3.5s-2.5 4-2 6.5c.24 1.2 1 2 2 2s2.5-1 3-2m0-16c3.5 0 6 2.5 6 6 0 2.5-2 3.5-2 3.5s2.5 4 2 6.5c-.24 1.2-1 2-2 2s-2.5-1-3-2" />
  <path d="M7 15c0 1.5.5 3 2 3s2-1.5 2-3m7-5c-.5 2-2 3-3.5 3s-3-1-3.5-3m7 5c0 1.5-.5 3-2 3s-2-1.5-2-3" />
  <path d="M10 9a1 1 0 1 0 0-2 1 1 0 0 0 0 2zm5 0a1 1 0 1 0 0-2 1 1 0 0 0 0 2z" />
</svg>